HIERARCHY
ROOT hip
{
  OFFSET 0 0 0
  CHANNELS 6 Xposition Yposition Zposition Zrotation Yrotation Xrotation
  JOINT abdomen
  {
    OFFSET 0 20.6881 -0.73152
    CHANNELS 3 Zrotation Xrotation Yrotation
    JOINT chest
    {
      OFFSET 0 11.7043 -0.48768
      CHANNELS 3 Zrotation Xrotation Yrotation
      JOINT neck
      {
        OFFSET 0 22.1894 -2.19456
        CHANNELS 3 Zrotation Xrotation Yrotation
        JOINT head
        {
          OFFSET -0.24384 7.07133 1.2192
          CHANNELS 3 Zrotation Xrotation Yrotation
          JOINT leftEye
          {
            OFFSET 4.14528 8.04674 8.04672
            CHANNELS 3 Zrotation Xrotation Yrotation
            End Site
            {
              OFFSET 1 0 0
            }
          }
          JOINT rightEye
          {
            OFFSET -3.6576 8.04674 8.04672
            CHANNELS 3 Zrotation Xrotation Yrotation
            End Site
            {
              OFFSET 1 0 0
            }
          }
        }
      }
      JOINT rCollar
      {
        OFFSET -2.68224 19.2634 -4.8768
        CHANNELS 3 Zrotation Xrotation Yrotation
        JOINT rShldr
        {
          OFFSET -8.77824 -1.95073 1.46304
          CHANNELS 3 Zrotation Xrotation Yrotation
          JOINT rForeArm
          {
            OFFSET -28.1742 -1.7115 0.48768
            CHANNELS 3 Zrotation Xrotation Yrotation
            JOINT rHand
            {
              OFFSET -22.5879 0.773209 7.07136
              CHANNELS 3 Zrotation Xrotation Yrotation
              JOINT rThumb1
              {
                OFFSET -1.2192 -0.487915 3.41376
                CHANNELS 3 Zrotation Xrotation Yrotation
                JOINT rThumb2
                {
                  OFFSET -3.37035 -0.52449 3.41376
                  CHANNELS 3 Zrotation Xrotation Yrotation
                  End Site
                  {
                    OFFSET -1.78271 -1.18214 1.43049
                  }
                }
              }
              JOINT rIndex1
              {
                OFFSET -7.75947 0.938293 5.60832
                CHANNELS 3 Zrotation Xrotation Yrotation
                JOINT rIndex2
                {
                  OFFSET -2.54057 -0.884171 1.56538
                  CHANNELS 3 Zrotation Xrotation Yrotation
                  End Site
                  {
                    OFFSET -1.62519 -0.234802 1.16502
                  }
                }
              }
              JOINT rMid1
              {
                OFFSET -8.24714 1.18213 3.41376
                CHANNELS 3 Zrotation Xrotation Yrotation
                JOINT rMid2
                {
                  OFFSET -3.10165 -0.590103 1.0647
                  CHANNELS 3 Zrotation Xrotation Yrotation
                  End Site
                  {
                    OFFSET -2.48547 -0.328903 0.83742
                  }
                }
              }
              JOINT rRing1
              {
                OFFSET -8.82822 0.546677 1.51678
                CHANNELS 3 Zrotation Xrotation Yrotation
                JOINT rRing2
                {
                  OFFSET -2.60934 -0.819778 -0.0198488
                  CHANNELS 3 Zrotation Xrotation Yrotation
                  End Site
                  {
                    OFFSET -2.33842 -0.294052 0.168128
                  }
                }
              }
              JOINT rPinky1
              {
                OFFSET -8.27202 -0.0477905 -0.4584
                CHANNELS 3 Zrotation Xrotation Yrotation
                JOINT rPinky2
                {
                  OFFSET -1.82734 -0.647385 -0.700984
                  CHANNELS 3 Zrotation Xrotation Yrotation
                  End Site
                  {
                    OFFSET -1.69225 -0.51767 -0.607171
                  }
                }
              }
            }
          }
        }
      }
      JOINT lCollar
      {
        OFFSET 2.68224 19.2634 -4.8768
        CHANNELS 3 Zrotation Xrotation Yrotation
        JOINT lShldr
        {
          OFFSET 8.77824 -1.95073 1.46304
          CHANNELS 3 Zrotation Xrotation Yrotation
          JOINT lForeArm
          {
            OFFSET 28.1742 -1.7115 0.48768
            CHANNELS 3 Zrotation Xrotation Yrotation
            JOINT lHand
            {
              OFFSET 22.5879 0.773209 7.07136
              CHANNELS 3 Zrotation Xrotation Yrotation
              JOINT lThumb1
              {
                OFFSET 1.2192 -0.487915 3.41376
                CHANNELS 3 Zrotation Xrotation Yrotation
                JOINT lThumb2
                {
                  OFFSET 3.37035 -0.52449 3.41376
                  CHANNELS 3 Zrotation Xrotation Yrotation
                  End Site
                  {
                    OFFSET 1.78271 -1.18214 1.43049
                  }
                }
              }
              JOINT lIndex1
              {
                OFFSET 7.75947 0.938293 5.60832
                CHANNELS 3 Zrotation Xrotation Yrotation
                JOINT lIndex2
                {
                  OFFSET 2.54057 -0.884171 1.56538
                  CHANNELS 3 Zrotation Xrotation Yrotation
                  End Site
                  {
                    OFFSET 1.62519 -0.234802 1.16502
                  }
                }
              }
              JOINT lMid1
              {
                OFFSET 8.24714 1.18213 3.41376
                CHANNELS 3 Zrotation Xrotation Yrotation
                JOINT lMid2
                {
                  OFFSET 3.10165 -0.590103 1.0647
                  CHANNELS 3 Zrotation Xrotation Yrotation
                  End Site
                  {
                    OFFSET 2.48547 -0.328903 0.83742
                  }
                }
              }
              JOINT lRing1
              {
                OFFSET 8.82822 0.546677 1.51678
                CHANNELS 3 Zrotation Xrotation Yrotation
                JOINT lRing2
                {
                  OFFSET 2.60934 -0.819778 -0.0198488
                  CHANNELS 3 Zrotation Xrotation Yrotation
                  End Site
                  {
                    OFFSET 2.33842 -0.294052 0.168128
                  }
                }
              }
              JOINT lPinky1
              {
                OFFSET 8.27202 -0.0477905 -0.4584
                CHANNELS 3 Zrotation Xrotation Yrotation
                JOINT lPinky2
                {
                  OFFSET 1.82734 -0.647385 -0.700984
                  CHANNELS 3 Zrotation Xrotation Yrotation
                  End Site
                  {
                    OFFSET 1.69225 -0.51767 -0.607171
                  }
                }
              }
            }
          }
        }
      }
    }
  }
  JOINT rButtock
  {
    OFFSET -8.77824 4.35084 1.2192
    CHANNELS 3 Zrotation Xrotation Yrotation
    JOINT rThigh
    {
      OFFSET 0 -1.70687 -2.19456
      CHANNELS 3 Zrotation Xrotation Yrotation
      JOINT rShin
      {
        OFFSET 0 -36.8199 0.73152
        CHANNELS 3 Zrotation Xrotation Yrotation
        JOINT rFoot
        {
          OFFSET 0.73152 -45.1104 -5.12064
          CHANNELS 3 Zrotation Xrotation Yrotation
          End Site
          {
            OFFSET -1.1221 -3.69964 12.103
          }
        }
      }
    }
  }
  JOINT lButtock
  {
    OFFSET 8.77824 4.35084 1.2192
    CHANNELS 3 Zrotation Xrotation Yrotation
    JOINT lThigh
    {
      OFFSET 0 -1.70687 -2.19456
      CHANNELS 3 Zrotation Xrotation Yrotation
      JOINT lShin
      {
        OFFSET 0 -36.8199 0.73152
        CHANNELS 3 Zrotation Xrotation Yrotation
        JOINT lFoot
        {
          OFFSET -0.73152 -45.1104 -5.12064
          CHANNELS 3 Zrotation Xrotation Yrotation
          End Site
          {
            OFFSET 1.1221 -3.69964 12.103
          }
        }
      }
    }
  }
}
MOTION
Frames:	4
Frame Time:	0.03333
-13.2775 63.863 38.8855 -16.124053 -39.361827 13.026242 8.179885 6.923209 129.982111 -1.722364 1.822629 -118.266896 -0.257718 28.632137 -171.368884 -6.310336 41.273811 174.226275 3.130294 -0.800621 -28.687042 20.882134 1.61241 8.73363 -138.096282 -73.223352 -163.82399 -52.419031 -32.205929 -48.782814 4.339771 -12.305756 -126.263521 172.554982 -16.073443 135.604792 -173.800005 6.704924 96.37825 -46.533714 -41.261885 -22.378345 -39.407544 39.526581 42.726826 91.142516 -68.28554 52.21966 5.847199 5.877814 13.523451 -4.948972 34.778833 10.050594 -139.598053 31.750002 -179.425685 -152.392284 -38.176223 -150.293662 4.024137 62.174168 18.619137 -175.122136 -30.372106 -168.127748 -3.900893 -45.050266 5.318078 -69.359236 14.945834 18.322989 -10.764162 17.242404 -60.754275 10.504528 26.976314 1.729612 -1.400528 -1.426167 4.913232 53.561876 25.884865 -64.46973 -11.959233 -15.28327 1.956527 114.991856 38.940432 -88.671863 -32.178623 -59.483089 -8.487142 17.44756 26.589039 -14.745742 140.530751 22.464554 -164.655633 153.130016 6.824102 -160.551403 -16.64327 75.584984 -3.243146 -119.256506 -83.741709 -119.119726 -161.725056 81.15919 -17.166167 164.400799 78.300285 -21.602194 -28.933511 45.595443 -88.505949 20.154332 8.898452 93.446062 89.098993 67.854838 80.133037 -132.679861 13.876603 -96.219894 -81.772305 6.025693 -45.548807 74.874081 -22.219292 171.193178
-13.7049 64.25030000000001 40.1072 -15.517153 -38.463061 12.349395 11.744455 9.022764 -81.590839 3.907063 -4.617893 91.811197 -7.386196 27.344766 -130.829846 20.101326 38.684686 124.613956 -0.080291 0.020823 -29.078501 21.361552 1.585542 8.392206 -2.521569 25.779046 2.630601 178.09577 -78.092547 109.275795 160.985486 88.449311 -64.01558 -7.507284 19.230932 -8.095732 -3.915139 -14.493545 -9.495847 -130.258029 -57.973691 109.069224 -8.365322 23.546285 16.547801 81.868776 -60.67913 43.893372 -127.99642 26.166902 119.658814 91.574576 -74.600843 67.103163 -134.329758 -8.924864 -167.97126 -155.500899 7.17483 -158.281403 -158.713753 19.53793 -145.087388 -103.805499 -23.617855 -61.330491 35.001071 56.768868 -34.796707 -61.544852 -15.24376 -72.571642 5.769689 -23.057753 -60.64128 5.086084 9.586885 3.958936 77.24986 43.430872 -41.58146 136.607713 -25.401552 -65.912519 -2.825272 1.196733 -1.750682 -5.403351 4.743541 1.776923 -174.278786 -58.043048 -133.535933 -175.724957 -48.388787 -130.457779 71.011211 62.923056 -89.420339 138.669872 -9.557245 -170.497118 4.902191 42.89777 -9.166504 104.388235 26.536342 -172.261277 -93.938612 58.921307 -60.040665 99.553469 59.229475 -0.0 -24.340758 40.559857 120.039393 -108.547781 -52.14511 169.739865 3.577857 -12.846307 -3.698529 29.86123 -45.423988 22.667211 -40.391837 71.773777 -55.932805 159.840102 32.322571 -103.01564
-14.0295 64.1392 41.0229 -17.105588 -42.571195 14.489059 7.739673 8.764205 101.516544 -4.267415 0.956648 -89.54291 0.804069 10.117949 16.102421 5.007377 -22.768807 -14.755582 0.056098 -0.010526 -21.254526 16.066132 1.015955 7.189487 2.418432 -8.917471 -6.324066 63.616923 21.900547 -14.053413 173.465476 7.250898 52.896194 175.588465 -6.609373 136.587054 -7.044811 -8.176758 -9.305794 144.025036 -73.831846 43.077621 84.3486 -78.185939 25.480791 109.376386 -53.943887 26.772125 136.224977 -67.229386 95.066069 -4.510041 14.148705 0.05956 -141.280642 -5.684187 -175.328278 -101.201797 -59.956688 -107.83457 -114.33401 -47.219798 -99.984134 -18.541987 -21.31483 -73.365418 159.503836 -3.192661 -159.740091 -136.705355 2.060829 168.104632 11.748969 -1.003087 -59.135801 4.388426 4.431185 3.742456 2.399369 6.823855 2.17415 -12.851634 -0.910467 -7.555674 166.936205 -44.603947 -119.356745 0.32977 18.881311 -1.010725 -1.164815 -1.68758 -2.169849 172.750477 -18.935439 -142.333499 -1.333009 -2.26902 -3.233373 -13.469104 -0.623539 14.87232 142.387652 -27.841764 125.429971 174.605602 1.365558 111.397144 9.776309 -2.025053 9.324034 -12.08151 -0.906463 -90.041977 -49.592688 10.993598 -6.243964 60.420615 28.143183 30.142439 -168.919451 85.844044 0.0 -162.831775 22.101612 -0.0 -36.347462 73.068847 -56.551909 10.921483 -12.992123 102.643564
-14.273 64.115 41.8734 -18.726951 -45.564932 16.065686 8.678905 9.277609 103.421043 -4.218829 2.086873 -88.88057 9.95389 16.635812 76.377227 -26.347846 -7.631088 -78.383674 7.79038 -1.079965 -15.761433 15.984873 1.123925 7.992081 1.37669 -39.803701 -14.669477 -109.839434 -25.346524 -140.734035 -171.741046 -14.375258 -88.847618 -6.625921 14.431741 -7.089768 -179.768165 -1.273806 98.438029 -60.339258 -1.883691 -9.503223 -116.202497 24.010392 109.18204 -154.46683 -73.71595 157.168668 -8.116619 18.915578 17.586049 -172.764331 -49.007811 141.126367 6.307903 1.836196 -0.346655 -148.634975 -7.205986 155.453094 -103.64556 -49.986594 -92.44399 -76.793191 1.04604 -105.136951 153.148466 20.884413 -152.10333 -127.640091 -29.454317 -170.330126 -145.258901 13.027575 -100.312121 175.952006 14.703524 -141.348375 179.562906 -22.089988 -92.2609 136.245847 28.213678 -70.914831 -171.367036 -62.943253 -107.261975 -178.338067 -37.844142 -103.979383 -69.461781 -79.894337 -35.277638 -1.180703 10.171225 -12.962979 140.159557 6.12075 -177.020307 -13.461492 19.741148 -3.323455 6.263909 5.652316 -0.278992 45.3544 -68.252629 72.365524 -6.104138 -3.648324 -2.956068 1.301052 0.398426 87.830094 44.700702 -6.497939 -86.710017 -55.255051 14.17823 -15.995987 -126.958943 80.859687 -41.245233 -165.503172 16.383051 -82.438831 -72.995638 3.512641 81.137587 -140.105691 -39.662254 -5.775692
